<svg xmlns="http://www.w3.org/2000/svg" viewBox="0 0 512 512" role="img" aria-label="Earthquake Tracker">
  <defs>
    <radialGradient id="bg" cx="34%" cy="24%" r="78%">
      <stop offset="0%" stop-color="#1e2a38"/>
      <stop offset="55%" stop-color="#0d1117"/>
      <stop offset="100%" stop-color="#080a0d"/>
    </radialGradient>
    <linearGradient id="ring" x1="130" y1="94" x2="390" y2="418" gradientUnits="userSpaceOnUse">
      <stop stop-color="#54d6a7"/>
      <stop offset="52%" stop-color="#f6b65f"/>
      <stop offset="100%" stop-color="#e34d59"/>
    </linearGradient>
    <filter id="glow" x="-30%" y="-30%" width="160%" height="160%">
      <feGaussianBlur stdDeviation="10" result="blur"/>
      <feColorMatrix in="blur" type="matrix" values="0 0 0 0 0.329 0 0 0 0 0.839 0 0 0 0 0.655 0 0 0 .55 0"/>
      <feMerge>
        <feMergeNode/>
        <feMergeNode in="SourceGraphic"/>
      </feMerge>
    </filter>
    <clipPath id="clip">
      <rect width="512" height="512" rx="112"/>
    </clipPath>
  </defs>

  <g clip-path="url(#clip)">
    <rect width="512" height="512" fill="url(#bg)"/>
    <path d="M64 348c58-18 84-70 128-78 50-9 76 44 123 28 42-14 50-66 91-82 18-7 34-4 42 0" fill="none" stroke="#27384a" stroke-width="18" stroke-linecap="round"/>
    <path d="M78 368c76-28 101-86 152-88 48-2 69 48 114 40 47-8 58-65 100-88" fill="none" stroke="#1c2a38" stroke-width="10" stroke-linecap="round"/>

    <circle cx="256" cy="256" r="154" fill="none" stroke="#27384a" stroke-width="22"/>
    <circle cx="256" cy="256" r="154" fill="none" stroke="url(#ring)" stroke-width="18" stroke-linecap="round" stroke-dasharray="690 280" transform="rotate(-34 256 256)" filter="url(#glow)"/>
    <circle cx="256" cy="256" r="92" fill="none" stroke="#54d6a7" stroke-opacity=".28" stroke-width="8"/>

    <path d="M113 259h64l26-62 53 144 42-93 25 51h76" fill="none" stroke="#f8fafc" stroke-width="26" stroke-linecap="round" stroke-linejoin="round"/>
    <path d="M177 259l26-62 53 144 42-93 25 51" fill="none" stroke="#54d6a7" stroke-width="12" stroke-linecap="round" stroke-linejoin="round"/>

    <circle cx="376" cy="155" r="24" fill="#e34d59"/>
    <circle cx="376" cy="155" r="44" fill="none" stroke="#e34d59" stroke-opacity=".32" stroke-width="12"/>
    <circle cx="376" cy="155" r="70" fill="none" stroke="#e34d59" stroke-opacity=".16" stroke-width="10"/>
  </g>
</svg>
